<?xml version="1.0" encoding="utf-8"?>
<svg version="1.2" baseProfile="tiny" xmlns="http://www.w3.org/2000/svg" xmlns:xlink="http://www.w3.org/1999/xlink" viewBox="0 0 100 100" xml:space="preserve">
  <g fill="white" fill-opacity="0.9">
    <path d="M42.5,74.3c-4.9,4.3-11.8,6.7-19,6.7C11.3,81.1,3,74.2,3,64.1c0-7,3.7-12.2,11.5-16.4c1-0.5,2.2-1.2,2.5-1.3
             c-5.4-5.7-7.5-9.5-7.5-13.9c0-7.8,6.8-13.5,15.8-13.5c9.2,0,15.8,5.6,15.8,13.5c0,6.1-3.8,10.8-12.6,15.5l13.7,14.7
             c1.8-3.3,2.6-7.7,2.6-14.3v-2.3h8.1v2.5c0,8.5-1.7,15.1-5,20L58.7,80h-11L42.5,74.3z M11.8,63.4c0,6.3,5,10.4,12.5,10.4
             c5,0,10.1-2,13-5L21.6,51.5c-0.5,0.3-1.5,0.8-1.9,1C14.1,56,11.8,59.1,11.8,63.4z M33,32.9c0-4.3-3-7.3-7.6-7.3
             c-4.4,0-7.6,3.1-7.6,7.4c0,3.1,1.6,5.8,6.1,10.3C30.5,39.9,33,37,33,32.9z"/>
             <rect x="59.2" y="34.1" width="37.8" height="8.5"/>
             <rect x="59.2" y="57.3" width="37.8" height="8.5"/>
  </g>
</svg>
